<svg width="881" height="1201" viewBox="0 0 881 1201" class="keymap" xmlns="http://www.w3.org/2000/svg" xmlns:xlink="http://www.w3.org/1999/xlink">
<style>/* inherit to force style */
svg.keymap {
    font-family: 'Iosevka', 'Fira Code', monospace;
    font-size: 14px;
    font-kerning: normal;
    text-rendering: optimizeLegibility;
    fill: #24292e;
}

/* default key styling */
rect.key {
    fill: #f6f8fa;
    stroke: #c9cccf;
    stroke-width: 1;
}

/* color accent for held keys */
rect.held, rect.combo.held {
    fill: #fdd;
}

/* color accent for ghost (optional) keys */
rect.ghost, rect.combo.ghost {
    stroke-dasharray: 4, 4;
    stroke-width: 2;
}

text {
    text-anchor: middle;
    dominant-baseline: middle;
}

/* styling for layer labels */
text.label {
    font-weight: bold;
    text-anchor: start;
    stroke: white;
    stroke-width: 2;
    paint-order: stroke fill;
}

/* styling for combo labels */
text.combo {
    fill: #555;
    font-size: 11px;
}

/* styling for held key labels */
text.held {
    fill: #dd0000;
}

/* styling for home row modifiers */
text.mod {
    font-size: 12px;
}
</style>
<g transform="translate(12, 0)" class="layer-BASE">
<text x="0" y="6" class="label" id="BASE">BASE:</text>
<g transform="translate(0, 12)">
<g transform="translate(78, 113) rotate(-10.0)" class="key keypos-0">
<rect rx="4" ry="4" x="-28" y="-26" width="55" height="52" class="key"/>
<text x="0" y="0" class="key tap">Q</text>
</g>
<g transform="translate(144, 62) rotate(-4.0)" class="key keypos-1">
<rect rx="4" ry="4" x="-28" y="-26" width="55" height="52" class="key"/>
<text x="0" y="0" class="key tap">W</text>
</g>
<g transform="translate(212, 28)" class="key keypos-2">
<rect rx="4" ry="4" x="-28" y="-26" width="55" height="52" class="key"/>
<text x="0" y="0" class="key tap">E</text>
</g>
<g transform="translate(271, 56)" class="key keypos-3">
<rect rx="4" ry="4" x="-28" y="-26" width="55" height="52" class="key"/>
<text x="0" y="0" class="key tap">R</text>
</g>
<g transform="translate(330, 65)" class="key keypos-4">
<rect rx="4" ry="4" x="-28" y="-26" width="55" height="52" class="key"/>
<text x="0" y="0" class="key tap">T</text>
</g>
<g transform="translate(520, 65)" class="key keypos-5">
<rect rx="4" ry="4" x="-28" y="-26" width="55" height="52" class="key"/>
<text x="0" y="0" class="key tap">Y</text>
</g>
<g transform="translate(580, 56)" class="key keypos-6">
<rect rx="4" ry="4" x="-28" y="-26" width="55" height="52" class="key"/>
<text x="0" y="0" class="key tap">U</text>
</g>
<g transform="translate(639, 28)" class="key keypos-7">
<rect rx="4" ry="4" x="-28" y="-26" width="55" height="52" class="key"/>
<text x="0" y="0" class="key tap">I</text>
</g>
<g transform="translate(706, 62) rotate(4.0)" class="key keypos-8">
<rect rx="4" ry="4" x="-28" y="-26" width="55" height="52" class="key"/>
<text x="0" y="0" class="key tap">O</text>
</g>
<g transform="translate(773, 113) rotate(10.0)" class="key keypos-9">
<rect rx="4" ry="4" x="-28" y="-26" width="55" height="52" class="key"/>
<text x="0" y="0" class="key tap">P</text>
</g>
<g transform="translate(87, 168) rotate(-10.0)" class="key keypos-10">
<rect rx="4" ry="4" x="-28" y="-26" width="55" height="52" class="key"/>
<text x="0" y="0" class="key tap">A</text>
</g>
<g transform="translate(148, 118) rotate(-4.0)" class="key keypos-11">
<rect rx="4" ry="4" x="-28" y="-26" width="55" height="52" class="key"/>
<text x="0" y="0" class="key tap">S</text>
</g>
<g transform="translate(212, 84)" class="key keypos-12">
<rect rx="4" ry="4" x="-28" y="-26" width="55" height="52" class="key"/>
<text x="0" y="0" class="key tap">D</text>
</g>
<g transform="translate(271, 112)" class="key keypos-13">
<rect rx="4" ry="4" x="-28" y="-26" width="55" height="52" class="key"/>
<text x="0" y="0" class="key tap">F</text>
</g>
<g transform="translate(330, 121)" class="key keypos-14">
<rect rx="4" ry="4" x="-28" y="-26" width="55" height="52" class="key"/>
<text x="0" y="0" class="key tap">G</text>
<text x="0" y="24" class="key hold">Cmd</text>
</g>
<g transform="translate(520, 121)" class="key keypos-15">
<rect rx="4" ry="4" x="-28" y="-26" width="55" height="52" class="key"/>
<text x="0" y="0" class="key tap">H</text>
</g>
<g transform="translate(580, 112)" class="key keypos-16">
<rect rx="4" ry="4" x="-28" y="-26" width="55" height="52" class="key"/>
<text x="0" y="0" class="key tap">J</text>
</g>
<g transform="translate(639, 84)" class="key keypos-17">
<rect rx="4" ry="4" x="-28" y="-26" width="55" height="52" class="key"/>
<text x="0" y="0" class="key tap">K</text>
</g>
<g transform="translate(703, 118) rotate(4.0)" class="key keypos-18">
<rect rx="4" ry="4" x="-28" y="-26" width="55" height="52" class="key"/>
<text x="0" y="0" class="key tap">L</text>
</g>
<g transform="translate(764, 168) rotate(10.0)" class="key keypos-19">
<rect rx="4" ry="4" x="-28" y="-26" width="55" height="52" class="key"/>
<text x="0" y="0" class="key tap">;</text>
</g>
<g transform="translate(34, 209) rotate(-10.0)" class="key keypos-20">
<rect rx="4" ry="4" x="-28" y="-26" width="55" height="52" class="key"/>
<text x="0" y="0" class="key tap">TAB</text>
<text x="0" y="24" class="key hold">Shift</text>
</g>
<g transform="translate(97, 223) rotate(-10.0)" class="key keypos-21">
<rect rx="4" ry="4" x="-28" y="-26" width="55" height="52" class="key"/>
<text x="0" y="0" class="key tap">Z</text>
</g>
<g transform="translate(152, 174) rotate(-4.0)" class="key keypos-22">
<rect rx="4" ry="4" x="-28" y="-26" width="55" height="52" class="key"/>
<text x="0" y="0" class="key tap">X</text>
</g>
<g transform="translate(212, 140)" class="key keypos-23">
<rect rx="4" ry="4" x="-28" y="-26" width="55" height="52" class="key"/>
<text x="0" y="0" class="key tap">C</text>
</g>
<g transform="translate(271, 168)" class="key keypos-24">
<rect rx="4" ry="4" x="-28" y="-26" width="55" height="52" class="key"/>
<text x="0" y="0" class="key tap">V</text>
</g>
<g transform="translate(330, 177)" class="key keypos-25">
<rect rx="4" ry="4" x="-28" y="-26" width="55" height="52" class="key"/>
<text x="0" y="0" class="key tap">B</text>
</g>
<g transform="translate(520, 177)" class="key keypos-26">
<rect rx="4" ry="4" x="-28" y="-26" width="55" height="52" class="key"/>
<text x="0" y="0" class="key tap">N</text>
</g>
<g transform="translate(580, 168)" class="key keypos-27">
<rect rx="4" ry="4" x="-28" y="-26" width="55" height="52" class="key"/>
<text x="0" y="0" class="key tap">M</text>
</g>
<g transform="translate(639, 140)" class="key keypos-28">
<rect rx="4" ry="4" x="-28" y="-26" width="55" height="52" class="key"/>
<text x="0" y="0" class="key tap">,</text>
</g>
<g transform="translate(699, 174) rotate(4.0)" class="key keypos-29">
<rect rx="4" ry="4" x="-28" y="-26" width="55" height="52" class="key"/>
<text x="0" y="0" class="key tap">.</text>
</g>
<g transform="translate(754, 223) rotate(10.0)" class="key keypos-30">
<rect rx="4" ry="4" x="-28" y="-26" width="55" height="52" class="key"/>
<text x="0" y="0" class="key tap">/</text>
</g>
<g transform="translate(817, 209) rotate(10.0)" class="key keypos-31">
<rect rx="4" ry="4" x="-28" y="-26" width="55" height="52" class="key"/>
<text x="0" y="0" class="key tap">\</text>
</g>
<g transform="translate(255, 236)" class="key keypos-32">
<rect rx="4" ry="4" x="-28" y="-26" width="55" height="52" class="key"/>
<text x="0" y="0" class="key tap">Ctrl</text>
</g>
<g transform="translate(320, 245) rotate(15.0)" class="key keypos-33">
<rect rx="4" ry="4" x="-28" y="-26" width="55" height="52" class="key"/>
<text x="0" y="0" class="key tap">Cmd</text>
</g>
<g transform="translate(381, 270) rotate(30.0)" class="key keypos-34">
<rect rx="4" ry="4" x="-28" y="-26" width="55" height="52" class="key"/>
<text x="0" y="0" class="key tap">___</text>
</g>
<g transform="translate(470, 270) rotate(-30.0)" class="key keypos-35">
<rect rx="4" ry="4" x="-28" y="-26" width="55" height="52" class="key"/>
<text x="0" y="0" class="key tap">Enter</text>
<text x="0" y="24" class="key hold">Alt</text>
</g>
<g transform="translate(531, 245) rotate(-15.0)" class="key keypos-36">
<rect rx="4" ry="4" x="-28" y="-26" width="55" height="52" class="key"/>
<text x="0" y="0" class="key tap">Bksp</text>
<a href="#NAVI">
<text x="0" y="24" class="key hold layer-activator">NAVI</text>
</a></g>
<g transform="translate(596, 236)" class="key keypos-37">
<rect rx="4" ry="4" x="-28" y="-26" width="55" height="52" class="key"/>
<text x="0" y="0" class="key tap">Alt</text>
<a href="#ADJ">
<text x="0" y="24" class="key hold layer-activator">ADJ</text>
</a></g>
</g>
</g>
<g transform="translate(12, 322)" class="layer-NAVI">
<text x="0" y="6" class="label" id="NAVI">NAVI:</text>
<g transform="translate(0, 12)">
<g transform="translate(78, 113) rotate(-10.0)" class="key trans keypos-0">
<rect rx="4" ry="4" x="-28" y="-26" width="55" height="52" class="key trans"/>
<text x="0" y="0" class="key trans tap">▽</text>
</g>
<g transform="translate(144, 62) rotate(-4.0)" class="key trans keypos-1">
<rect rx="4" ry="4" x="-28" y="-26" width="55" height="52" class="key trans"/>
<text x="0" y="0" class="key trans tap">▽</text>
</g>
<g transform="translate(212, 28)" class="key keypos-2">
<rect rx="4" ry="4" x="-28" y="-26" width="55" height="52" class="key"/>
<text x="0" y="0" class="key tap">UP</text>
</g>
<g transform="translate(271, 56)" class="key trans keypos-3">
<rect rx="4" ry="4" x="-28" y="-26" width="55" height="52" class="key trans"/>
<text x="0" y="0" class="key trans tap">▽</text>
</g>
<g transform="translate(330, 65)" class="key keypos-4">
<rect rx="4" ry="4" x="-28" y="-26" width="55" height="52" class="key"/>
<text x="0" y="0" class="key tap">{</text>
</g>
<g transform="translate(520, 65)" class="key keypos-5">
<rect rx="4" ry="4" x="-28" y="-26" width="55" height="52" class="key"/>
<text x="0" y="0" class="key tap">}</text>
</g>
<g transform="translate(580, 56)" class="key keypos-6">
<rect rx="4" ry="4" x="-28" y="-26" width="55" height="52" class="key"/>
<text x="0" y="0" class="key tap">7</text>
</g>
<g transform="translate(639, 28)" class="key keypos-7">
<rect rx="4" ry="4" x="-28" y="-26" width="55" height="52" class="key"/>
<text x="0" y="0" class="key tap">8</text>
</g>
<g transform="translate(706, 62) rotate(4.0)" class="key keypos-8">
<rect rx="4" ry="4" x="-28" y="-26" width="55" height="52" class="key"/>
<text x="0" y="0" class="key tap">9</text>
</g>
<g transform="translate(773, 113) rotate(10.0)" class="key keypos-9">
<rect rx="4" ry="4" x="-28" y="-26" width="55" height="52" class="key"/>
<text x="0" y="0" class="key tap">+</text>
</g>
<g transform="translate(87, 168) rotate(-10.0)" class="key trans keypos-10">
<rect rx="4" ry="4" x="-28" y="-26" width="55" height="52" class="key trans"/>
<text x="0" y="0" class="key trans tap">▽</text>
</g>
<g transform="translate(148, 118) rotate(-4.0)" class="key keypos-11">
<rect rx="4" ry="4" x="-28" y="-26" width="55" height="52" class="key"/>
<text x="0" y="0" class="key tap">LEFT</text>
</g>
<g transform="translate(212, 84)" class="key keypos-12">
<rect rx="4" ry="4" x="-28" y="-26" width="55" height="52" class="key"/>
<text x="0" y="0" class="key tap">DOWN</text>
</g>
<g transform="translate(271, 112)" class="key keypos-13">
<rect rx="4" ry="4" x="-28" y="-26" width="55" height="52" class="key"/>
<text x="0" y="0" class="key tap">RIGHT</text>
</g>
<g transform="translate(330, 121)" class="key keypos-14">
<rect rx="4" ry="4" x="-28" y="-26" width="55" height="52" class="key"/>
<text x="0" y="0" class="key tap">[</text>
</g>
<g transform="translate(520, 121)" class="key keypos-15">
<rect rx="4" ry="4" x="-28" y="-26" width="55" height="52" class="key"/>
<text x="0" y="0" class="key tap">]</text>
</g>
<g transform="translate(580, 112)" class="key keypos-16">
<rect rx="4" ry="4" x="-28" y="-26" width="55" height="52" class="key"/>
<text x="0" y="0" class="key tap">4</text>
</g>
<g transform="translate(639, 84)" class="key keypos-17">
<rect rx="4" ry="4" x="-28" y="-26" width="55" height="52" class="key"/>
<text x="0" y="0" class="key tap">5</text>
</g>
<g transform="translate(703, 118) rotate(4.0)" class="key keypos-18">
<rect rx="4" ry="4" x="-28" y="-26" width="55" height="52" class="key"/>
<text x="0" y="0" class="key tap">6</text>
</g>
<g transform="translate(764, 168) rotate(10.0)" class="key keypos-19">
<rect rx="4" ry="4" x="-28" y="-26" width="55" height="52" class="key"/>
<text x="0" y="0" class="key tap">-</text>
</g>
<g transform="translate(34, 209) rotate(-10.0)" class="key keypos-20">
<rect rx="4" ry="4" x="-28" y="-26" width="55" height="52" class="key"/>
<text x="0" y="0" class="key tap">TAB</text>
<text x="0" y="24" class="key hold">Shift</text>
</g>
<g transform="translate(97, 223) rotate(-10.0)" class="key trans keypos-21">
<rect rx="4" ry="4" x="-28" y="-26" width="55" height="52" class="key trans"/>
<text x="0" y="0" class="key trans tap">▽</text>
</g>
<g transform="translate(152, 174) rotate(-4.0)" class="key keypos-22">
<rect rx="4" ry="4" x="-28" y="-26" width="55" height="52" class="key"/>
<text x="0" y="0" class="key tap">PgUp</text>
</g>
<g transform="translate(212, 140)" class="key keypos-23">
<rect rx="4" ry="4" x="-28" y="-26" width="55" height="52" class="key"/>
<text x="0" y="0" class="key tap">CAPS</text>
</g>
<g transform="translate(271, 168)" class="key keypos-24">
<rect rx="4" ry="4" x="-28" y="-26" width="55" height="52" class="key"/>
<text x="0" y="0" class="key tap">PgDn</text>
</g>
<g transform="translate(330, 177)" class="key keypos-25">
<rect rx="4" ry="4" x="-28" y="-26" width="55" height="52" class="key"/>
<text x="0" y="0" class="key tap">(</text>
</g>
<g transform="translate(520, 177)" class="key keypos-26">
<rect rx="4" ry="4" x="-28" y="-26" width="55" height="52" class="key"/>
<text x="0" y="0" class="key tap">)</text>
</g>
<g transform="translate(580, 168)" class="key keypos-27">
<rect rx="4" ry="4" x="-28" y="-26" width="55" height="52" class="key"/>
<text x="0" y="0" class="key tap">1</text>
</g>
<g transform="translate(639, 140)" class="key keypos-28">
<rect rx="4" ry="4" x="-28" y="-26" width="55" height="52" class="key"/>
<text x="0" y="0" class="key tap">2</text>
</g>
<g transform="translate(699, 174) rotate(4.0)" class="key keypos-29">
<rect rx="4" ry="4" x="-28" y="-26" width="55" height="52" class="key"/>
<text x="0" y="0" class="key tap">3</text>
</g>
<g transform="translate(754, 223) rotate(10.0)" class="key keypos-30">
<rect rx="4" ry="4" x="-28" y="-26" width="55" height="52" class="key"/>
<text x="0" y="0" class="key tap">*</text>
</g>
<g transform="translate(817, 209) rotate(10.0)" class="key trans keypos-31">
<rect rx="4" ry="4" x="-28" y="-26" width="55" height="52" class="key trans"/>
<text x="0" y="0" class="key trans tap">▽</text>
</g>
<g transform="translate(255, 236)" class="key trans keypos-32">
<rect rx="4" ry="4" x="-28" y="-26" width="55" height="52" class="key trans"/>
<text x="0" y="0" class="key trans tap">▽</text>
</g>
<g transform="translate(320, 245) rotate(15.0)" class="key trans keypos-33">
<rect rx="4" ry="4" x="-28" y="-26" width="55" height="52" class="key trans"/>
<text x="0" y="0" class="key trans tap">▽</text>
</g>
<g transform="translate(381, 270) rotate(30.0)" class="key trans keypos-34">
<rect rx="4" ry="4" x="-28" y="-26" width="55" height="52" class="key trans"/>
<text x="0" y="0" class="key trans tap">▽</text>
</g>
<g transform="translate(470, 270) rotate(-30.0)" class="key trans keypos-35">
<rect rx="4" ry="4" x="-28" y="-26" width="55" height="52" class="key trans"/>
<text x="0" y="0" class="key trans tap">▽</text>
</g>
<g transform="translate(531, 245) rotate(-15.0)" class="key held keypos-36">
<rect rx="4" ry="4" x="-28" y="-26" width="55" height="52" class="key held"/>
</g>
<g transform="translate(596, 236)" class="key keypos-37">
<rect rx="4" ry="4" x="-28" y="-26" width="55" height="52" class="key"/>
<text x="0" y="0" class="key tap">0</text>
</g>
</g>
</g>
<g transform="translate(12, 643)" class="layer-ADJ">
<text x="0" y="6" class="label" id="ADJ">ADJ:</text>
<g transform="translate(0, 12)">
<g transform="translate(78, 113) rotate(-10.0)" class="key keypos-0">
<rect rx="4" ry="4" x="-28" y="-26" width="55" height="52" class="key"/>
<text x="0" y="0" class="key tap"><tspan style="font-size: 70%">&amp;sys_reset</tspan></text>
</g>
<g transform="translate(144, 62) rotate(-4.0)" class="key keypos-1">
<rect rx="4" ry="4" x="-28" y="-26" width="55" height="52" class="key"/>
<text x="0" y="0" class="key tap">
<tspan x="0" dy="-0.6em">BT</tspan><tspan x="0" dy="1.2em">Clr</tspan>
</text>
</g>
<g transform="translate(212, 28)" class="key keypos-2">
<rect rx="4" ry="4" x="-28" y="-26" width="55" height="52" class="key"/>
<text x="0" y="0" class="key tap">Mute</text>
</g>
<g transform="translate(271, 56)" class="key trans keypos-3">
<rect rx="4" ry="4" x="-28" y="-26" width="55" height="52" class="key trans"/>
<text x="0" y="0" class="key trans tap">▽</text>
</g>
<g transform="translate(330, 65)" class="key trans keypos-4">
<rect rx="4" ry="4" x="-28" y="-26" width="55" height="52" class="key trans"/>
<text x="0" y="0" class="key trans tap">▽</text>
</g>
<g transform="translate(520, 65)" class="key trans keypos-5">
<rect rx="4" ry="4" x="-28" y="-26" width="55" height="52" class="key trans"/>
<text x="0" y="0" class="key trans tap">▽</text>
</g>
<g transform="translate(580, 56)" class="key keypos-6">
<rect rx="4" ry="4" x="-28" y="-26" width="55" height="52" class="key"/>
<text x="0" y="0" class="key tap">F7</text>
</g>
<g transform="translate(639, 28)" class="key keypos-7">
<rect rx="4" ry="4" x="-28" y="-26" width="55" height="52" class="key"/>
<text x="0" y="0" class="key tap">F8</text>
</g>
<g transform="translate(706, 62) rotate(4.0)" class="key keypos-8">
<rect rx="4" ry="4" x="-28" y="-26" width="55" height="52" class="key"/>
<text x="0" y="0" class="key tap">F9</text>
</g>
<g transform="translate(773, 113) rotate(10.0)" class="key keypos-9">
<rect rx="4" ry="4" x="-28" y="-26" width="55" height="52" class="key"/>
<text x="0" y="0" class="key tap">F12</text>
</g>
<g transform="translate(87, 168) rotate(-10.0)" class="key keypos-10">
<rect rx="4" ry="4" x="-28" y="-26" width="55" height="52" class="key"/>
<text x="0" y="0" class="key tap"><tspan style="font-size: 64%">&amp;studio_un…</tspan></text>
</g>
<g transform="translate(148, 118) rotate(-4.0)" class="key keypos-11">
<rect rx="4" ry="4" x="-28" y="-26" width="55" height="52" class="key"/>
<text x="0" y="0" class="key tap">
<tspan x="0" dy="-0.6em">BT</tspan><tspan x="0" dy="1.2em">Nxt</tspan>
</text>
</g>
<g transform="translate(212, 84)" class="key keypos-12">
<rect rx="4" ry="4" x="-28" y="-26" width="55" height="52" class="key"/>
<text x="0" y="0" class="key tap">Vol+</text>
</g>
<g transform="translate(271, 112)" class="key keypos-13">
<rect rx="4" ry="4" x="-28" y="-26" width="55" height="52" class="key"/>
<text x="0" y="0" class="key tap">Bri+</text>
</g>
<g transform="translate(330, 121)" class="key trans keypos-14">
<rect rx="4" ry="4" x="-28" y="-26" width="55" height="52" class="key trans"/>
<text x="0" y="0" class="key trans tap">▽</text>
</g>
<g transform="translate(520, 121)" class="key trans keypos-15">
<rect rx="4" ry="4" x="-28" y="-26" width="55" height="52" class="key trans"/>
<text x="0" y="0" class="key trans tap">▽</text>
</g>
<g transform="translate(580, 112)" class="key keypos-16">
<rect rx="4" ry="4" x="-28" y="-26" width="55" height="52" class="key"/>
<text x="0" y="0" class="key tap">F4</text>
</g>
<g transform="translate(639, 84)" class="key keypos-17">
<rect rx="4" ry="4" x="-28" y="-26" width="55" height="52" class="key"/>
<text x="0" y="0" class="key tap">F5</text>
</g>
<g transform="translate(703, 118) rotate(4.0)" class="key keypos-18">
<rect rx="4" ry="4" x="-28" y="-26" width="55" height="52" class="key"/>
<text x="0" y="0" class="key tap">F6</text>
</g>
<g transform="translate(764, 168) rotate(10.0)" class="key keypos-19">
<rect rx="4" ry="4" x="-28" y="-26" width="55" height="52" class="key"/>
<text x="0" y="0" class="key tap">F11</text>
</g>
<g transform="translate(34, 209) rotate(-10.0)" class="key trans keypos-20">
<rect rx="4" ry="4" x="-28" y="-26" width="55" height="52" class="key trans"/>
<text x="0" y="0" class="key trans tap">▽</text>
</g>
<g transform="translate(97, 223) rotate(-10.0)" class="key trans keypos-21">
<rect rx="4" ry="4" x="-28" y="-26" width="55" height="52" class="key trans"/>
<text x="0" y="0" class="key trans tap">▽</text>
</g>
<g transform="translate(152, 174) rotate(-4.0)" class="key keypos-22">
<rect rx="4" ry="4" x="-28" y="-26" width="55" height="52" class="key"/>
<text x="0" y="0" class="key tap">
<tspan x="0" dy="-0.6em">BT</tspan><tspan x="0" dy="1.2em">Prv</tspan>
</text>
</g>
<g transform="translate(212, 140)" class="key keypos-23">
<rect rx="4" ry="4" x="-28" y="-26" width="55" height="52" class="key"/>
<text x="0" y="0" class="key tap">Vol-</text>
</g>
<g transform="translate(271, 168)" class="key keypos-24">
<rect rx="4" ry="4" x="-28" y="-26" width="55" height="52" class="key"/>
<text x="0" y="0" class="key tap">Bri-</text>
</g>
<g transform="translate(330, 177)" class="key trans keypos-25">
<rect rx="4" ry="4" x="-28" y="-26" width="55" height="52" class="key trans"/>
<text x="0" y="0" class="key trans tap">▽</text>
</g>
<g transform="translate(520, 177)" class="key trans keypos-26">
<rect rx="4" ry="4" x="-28" y="-26" width="55" height="52" class="key trans"/>
<text x="0" y="0" class="key trans tap">▽</text>
</g>
<g transform="translate(580, 168)" class="key keypos-27">
<rect rx="4" ry="4" x="-28" y="-26" width="55" height="52" class="key"/>
<text x="0" y="0" class="key tap">F1</text>
</g>
<g transform="translate(639, 140)" class="key keypos-28">
<rect rx="4" ry="4" x="-28" y="-26" width="55" height="52" class="key"/>
<text x="0" y="0" class="key tap">F2</text>
</g>
<g transform="translate(699, 174) rotate(4.0)" class="key keypos-29">
<rect rx="4" ry="4" x="-28" y="-26" width="55" height="52" class="key"/>
<text x="0" y="0" class="key tap">F3</text>
</g>
<g transform="translate(754, 223) rotate(10.0)" class="key keypos-30">
<rect rx="4" ry="4" x="-28" y="-26" width="55" height="52" class="key"/>
<text x="0" y="0" class="key tap">F10</text>
</g>
<g transform="translate(817, 209) rotate(10.0)" class="key trans keypos-31">
<rect rx="4" ry="4" x="-28" y="-26" width="55" height="52" class="key trans"/>
<text x="0" y="0" class="key trans tap">▽</text>
</g>
<g transform="translate(255, 236)" class="key trans keypos-32">
<rect rx="4" ry="4" x="-28" y="-26" width="55" height="52" class="key trans"/>
<text x="0" y="0" class="key trans tap">▽</text>
</g>
<g transform="translate(320, 245) rotate(15.0)" class="key trans keypos-33">
<rect rx="4" ry="4" x="-28" y="-26" width="55" height="52" class="key trans"/>
<text x="0" y="0" class="key trans tap">▽</text>
</g>
<g transform="translate(381, 270) rotate(30.0)" class="key trans keypos-34">
<rect rx="4" ry="4" x="-28" y="-26" width="55" height="52" class="key trans"/>
<text x="0" y="0" class="key trans tap">▽</text>
</g>
<g transform="translate(470, 270) rotate(-30.0)" class="key trans keypos-35">
<rect rx="4" ry="4" x="-28" y="-26" width="55" height="52" class="key trans"/>
<text x="0" y="0" class="key trans tap">▽</text>
</g>
<g transform="translate(531, 245) rotate(-15.0)" class="key trans keypos-36">
<rect rx="4" ry="4" x="-28" y="-26" width="55" height="52" class="key trans"/>
<text x="0" y="0" class="key trans tap">▽</text>
</g>
<g transform="translate(596, 236)" class="key held keypos-37">
<rect rx="4" ry="4" x="-28" y="-26" width="55" height="52" class="key held"/>
</g>
</g>
</g>
<text x="12" y="971" class="label" id="Combos">Combos:</text>
<g transform="translate(12, 965)" class="layer-combopos-0">
<g transform="translate(0, 12)">
<g transform="translate(30, 28)" class="key  combo-separate keypos-0">
<rect rx="4" ry="4" x="-28" y="-26" width="55" height="52" class="key  combo-separate"/>
<text x="0" y="0" class="key  combo-separate tap">Esc</text>
</g>
<g transform="translate(39, 115) rotate(-10.0)" class="key held keypos-1">
<rect rx="4" ry="4" x="-13" y="-12" width="26" height="24" class="key held"/>
</g>
<g transform="translate(72, 89) rotate(-4.0)" class="key held keypos-2">
<rect rx="4" ry="4" x="-13" y="-12" width="26" height="24" class="key held"/>
</g>
<g transform="translate(106, 72)" class="key keypos-3">
<rect rx="4" ry="4" x="-13" y="-12" width="26" height="24" class="key"/>
</g>
<g transform="translate(136, 86)" class="key keypos-4">
<rect rx="4" ry="4" x="-13" y="-12" width="26" height="24" class="key"/>
</g>
<g transform="translate(165, 90)" class="key keypos-5">
<rect rx="4" ry="4" x="-13" y="-12" width="26" height="24" class="key"/>
</g>
<g transform="translate(260, 90)" class="key keypos-6">
<rect rx="4" ry="4" x="-13" y="-12" width="26" height="24" class="key"/>
</g>
<g transform="translate(290, 86)" class="key keypos-7">
<rect rx="4" ry="4" x="-13" y="-12" width="26" height="24" class="key"/>
</g>
<g transform="translate(319, 72)" class="key keypos-8">
<rect rx="4" ry="4" x="-13" y="-12" width="26" height="24" class="key"/>
</g>
<g transform="translate(353, 89) rotate(4.0)" class="key keypos-9">
<rect rx="4" ry="4" x="-13" y="-12" width="26" height="24" class="key"/>
</g>
<g transform="translate(387, 115) rotate(10.0)" class="key keypos-10">
<rect rx="4" ry="4" x="-13" y="-12" width="26" height="24" class="key"/>
</g>
<g transform="translate(44, 142) rotate(-10.0)" class="key keypos-11">
<rect rx="4" ry="4" x="-13" y="-12" width="26" height="24" class="key"/>
</g>
<g transform="translate(74, 117) rotate(-4.0)" class="key keypos-12">
<rect rx="4" ry="4" x="-13" y="-12" width="26" height="24" class="key"/>
</g>
<g transform="translate(106, 100)" class="key keypos-13">
<rect rx="4" ry="4" x="-13" y="-12" width="26" height="24" class="key"/>
</g>
<g transform="translate(136, 114)" class="key keypos-14">
<rect rx="4" ry="4" x="-13" y="-12" width="26" height="24" class="key"/>
</g>
<g transform="translate(165, 118)" class="key keypos-15">
<rect rx="4" ry="4" x="-13" y="-12" width="26" height="24" class="key"/>
</g>
<g transform="translate(260, 119)" class="key keypos-16">
<rect rx="4" ry="4" x="-13" y="-12" width="26" height="24" class="key"/>
</g>
<g transform="translate(290, 114)" class="key keypos-17">
<rect rx="4" ry="4" x="-13" y="-12" width="26" height="24" class="key"/>
</g>
<g transform="translate(319, 100)" class="key keypos-18">
<rect rx="4" ry="4" x="-13" y="-12" width="26" height="24" class="key"/>
</g>
<g transform="translate(351, 117) rotate(4.0)" class="key keypos-19">
<rect rx="4" ry="4" x="-13" y="-12" width="26" height="24" class="key"/>
</g>
<g transform="translate(382, 142) rotate(10.0)" class="key keypos-20">
<rect rx="4" ry="4" x="-13" y="-12" width="26" height="24" class="key"/>
</g>
<g transform="translate(17, 162) rotate(-10.0)" class="key keypos-21">
<rect rx="4" ry="4" x="-13" y="-12" width="26" height="24" class="key"/>
</g>
<g transform="translate(49, 170) rotate(-10.0)" class="key keypos-22">
<rect rx="4" ry="4" x="-13" y="-12" width="26" height="24" class="key"/>
</g>
<g transform="translate(76, 145) rotate(-4.0)" class="key keypos-23">
<rect rx="4" ry="4" x="-13" y="-12" width="26" height="24" class="key"/>
</g>
<g transform="translate(106, 128)" class="key keypos-24">
<rect rx="4" ry="4" x="-13" y="-12" width="26" height="24" class="key"/>
</g>
<g transform="translate(136, 142)" class="key keypos-25">
<rect rx="4" ry="4" x="-13" y="-12" width="26" height="24" class="key"/>
</g>
<g transform="translate(165, 146)" class="key keypos-26">
<rect rx="4" ry="4" x="-13" y="-12" width="26" height="24" class="key"/>
</g>
<g transform="translate(260, 147)" class="key keypos-27">
<rect rx="4" ry="4" x="-13" y="-12" width="26" height="24" class="key"/>
</g>
<g transform="translate(290, 142)" class="key keypos-28">
<rect rx="4" ry="4" x="-13" y="-12" width="26" height="24" class="key"/>
</g>
<g transform="translate(319, 128)" class="key keypos-29">
<rect rx="4" ry="4" x="-13" y="-12" width="26" height="24" class="key"/>
</g>
<g transform="translate(349, 145) rotate(4.0)" class="key keypos-30">
<rect rx="4" ry="4" x="-13" y="-12" width="26" height="24" class="key"/>
</g>
<g transform="translate(377, 170) rotate(10.0)" class="key keypos-31">
<rect rx="4" ry="4" x="-13" y="-12" width="26" height="24" class="key"/>
</g>
<g transform="translate(408, 162) rotate(10.0)" class="key keypos-32">
<rect rx="4" ry="4" x="-13" y="-12" width="26" height="24" class="key"/>
</g>
<g transform="translate(127, 176)" class="key keypos-33">
<rect rx="4" ry="4" x="-13" y="-12" width="26" height="24" class="key"/>
</g>
<g transform="translate(160, 181) rotate(15.0)" class="key keypos-34">
<rect rx="4" ry="4" x="-13" y="-12" width="26" height="24" class="key"/>
</g>
<g transform="translate(190, 193) rotate(30.0)" class="key keypos-35">
<rect rx="4" ry="4" x="-13" y="-12" width="26" height="24" class="key"/>
</g>
<g transform="translate(235, 193) rotate(-30.0)" class="key keypos-36">
<rect rx="4" ry="4" x="-13" y="-12" width="26" height="24" class="key"/>
</g>
<g transform="translate(265, 181) rotate(-15.0)" class="key keypos-37">
<rect rx="4" ry="4" x="-13" y="-12" width="26" height="24" class="key"/>
</g>
<g transform="translate(298, 176)" class="key keypos-38">
<rect rx="4" ry="4" x="-13" y="-12" width="26" height="24" class="key"/>
</g>
</g>
</g>
</svg>
